<?xml version="1.0" encoding="utf-8"?>
<!-- Svg Vector Icons : http://www.onlinewebfonts.com/icon -->
<!DOCTYPE svg PUBLIC "-//W3C//DTD SVG 1.1//EN" "http://www.w3.org/Graphics/SVG/1.1/DTD/svg11.dtd">
<svg version="1.1" xmlns="http://www.w3.org/2000/svg" xmlns:xlink="http://www.w3.org/1999/xlink" x="0px" y="0px" viewBox="0 0 1000 1000" enable-background="new 0 0 1000 1000" xml:space="preserve">
<metadata> Svg Vector Icons : http://www.onlinewebfonts.com/icon </metadata>
<g><path d="M990,209c0,44.2-382.2,503.7-497.1,642c-11.9,14.3-40.1,20.2-54.3,20.2c-26.1,0-46.3-12.2-74.2-40.1C251.4,718.6,134.7,604.2,24,492c-8-8-14-24.1-14-28.2v-42.2c10.1-40.1,46.3-62.1,78.4-62.1c12.2,0,32.4,2.1,46.3,14C235.4,465.9,334,570.1,432.6,668.7c26.1-32.4,307.9-385.5,426.7-526c3.9-5.9,44.3-13.9,48.1-13.9C957.9,128.8,990,165,990,209z"/></g>
</svg>