<svg height="512" viewBox="-53 1 511 511.99906" width="512" xmlns="http://www.w3.org/2000/svg"><g fill="#fff" stroke="#fff"><path d="m276.410156 3.957031c-2.347656-2.472656-5.566406-3.957031-8.902344-3.957031h-199.730468c-36.855469 0-67.277344 30.300781-67.277344 67.152344v377.691406c0 36.855469 30.421875 67.15625 67.277344 67.15625h271.085937c36.855469 0 67.277344-30.300781 67.277344-67.15625v-299.902344c0-3.214844-1.484375-6.304687-3.585937-8.65625zm3.585938 39.699219 84.46875 88.671875h-54.910156c-16.324219 0-29.558594-13.109375-29.558594-29.433594zm58.867187 443.609375h-271.085937c-23.125 0-42.542969-19.167969-42.542969-42.421875v-377.691406c0-23.125 19.292969-42.417969 42.542969-42.417969h187.484375v78.160156c0 30.050781 24.242187 54.167969 54.292969 54.167969h71.851562v287.78125c0 23.253906-19.292969 42.421875-42.542969 42.421875zm0 0"/><path d="m305.101562 401.933594h-203.5625c-6.800781 0-12.367187 5.5625-12.367187 12.367187 0 6.800781 5.566406 12.367188 12.367187 12.367188h203.6875c6.800782 0 12.367188-5.566407 12.367188-12.367188 0-6.804687-5.566406-12.367187-12.492188-12.367187zm0 0"/><path d="m140 268.863281 50.953125-54.789062v135.050781c0 6.800781 5.566406 12.367188 12.367187 12.367188 6.804688 0 12.367188-5.566407 12.367188-12.367188v-135.050781l50.953125 54.789062c2.472656 2.59375 5.691406 3.957031 9.027344 3.957031 2.96875 0 6.0625-1.113281 8.410156-3.339843 4.949219-4.699219 5.320313-12.492188.621094-17.4375l-72.472657-77.789063c-2.351562-2.472656-5.566406-3.957031-9.027343-3.957031-3.464844 0-6.679688 1.484375-9.027344 3.957031l-72.472656 77.789063c-4.699219 4.945312-4.328125 12.859375.617187 17.4375 5.195313 4.699219 12.984375 4.328125 17.683594-.617188zm0 0"/></g></svg>