<?xml version="1.0" encoding="UTF-8"?>
<svg width="128px" height="112px" viewBox="0 0 128 112" version="1.1" xmlns="http://www.w3.org/2000/svg" xmlns:xlink="http://www.w3.org/1999/xlink">
    <!-- Generator: Sketch 53 (72520) - https://sketchapp.com -->
    <title>Group 9</title>
    <desc>Created with Sketch.</desc>
    <defs>
        <polygon id="path-1" points="0.000396111403 0.693496829 128.517419 0.693496829 128.517419 113 0.000396111403 113"></polygon>
        <path d="M42,0 L127,0 C128.011612,21.1736276 128.517419,37.516548 128.517419,49.0287612 C128.517419,60.5409745 128.011612,77.8647208 127,101 L42,101 L42,0 Z" id="path-3"></path>
    </defs>
    <g id="Page-1" stroke="none" stroke-width="1" fill="none" fill-rule="evenodd">
        <g id="Group-9" transform="translate(0.000000, -2.000000)">
            <g id="Group">
                <g id="Group-3" transform="translate(0.000000, 1.000000)">
                    <mask id="mask-2" fill="white">
                        <use xlink:href="#path-1"></use>
                    </mask>
                    <g id="Clip-2"></g>
                    <path d="M62.9714023,17.352235 C62.9714023,17.352235 42.7130665,-5.86198042 19.3050078,6.95392054 C-7.33316769,21.5392563 4.72019279,51.4542445 4.72019279,51.4542445 C4.72019279,51.4542445 13.8018458,71.8662137 41.7961918,96.1478599 L55.1951951,107.687652 C55.1951951,107.687652 61.6554288,115.140435 71.7046812,107.687652 C81.7539336,100.23487 111.188673,70.518943 117.644121,60.3264214 C122.668747,52.3928143 134.635971,24.7588584 109.987548,8.63680691 C84.6251486,-7.95068283 62.9714023,17.352235 62.9714023,17.352235" id="Fill-1" stroke="#FFFFFF" stroke-width="4" fill-opacity="0" fill="#6DD400" mask="url(#mask-2)"></path>
                </g>
                <g id="Group-6" transform="translate(41.000000, 2.000000)"></g>
                <mask id="mask-4" fill="white">
                    <use xlink:href="#path-3"></use>
                </mask>
                <g id="Clip-5"></g>
                <path d="M45.5907826,38.7863753 C45.5907826,38.7863753 43.9195003,43.3111439 46.1989361,46.1192336 C48.478372,48.9273233 51.5173158,48.7710063 53.7967517,47.9912934 C56.0761875,47.2106445 63.8089457,39.5389434 63.8089457,39.5389434 C63.8089457,39.5389434 67.929254,35.9782856 72.7926583,39.8787222 C76.0960167,42.5286229 73.1792506,47.8012794 73.1792506,47.8012794 L60.4837047,62.656074 C60.4837047,62.656074 57.8997362,67.413914 60.8630028,71.2357241 C63.3056463,74.3864008 67.3976895,74.0438139 70.8925206,72.0163731 C74.3882634,69.9879963 89.355951,52.9831409 89.355951,52.9831409 C89.355951,52.9831409 94.5229762,50.1750512 98.0178072,53.4511559 C101.51355,56.7272606 99.2341142,61.2520291 99.2341142,61.2520291 L76.4853444,87.0312289 C75.9756625,87.6096953 75.5680994,88.2742766 75.2982142,89.0034439 C74.3563513,91.5447651 73.1546327,97.2002578 80.6831534,97.9874589 C82.1957871,98.146584 84.5765985,97.0514591 86.0627907,95.9890652 L104.7724,76.9018714 C115.468994,65.1177002 131.420897,47.8012794 122.348627,23.806401 C119.599541,16.5354542 114.278338,12.2037837 109.663526,9.24488534 C98.7250041,2.23138748 86.7548348,4.34495795 86.7548348,4.34495795 C86.7548348,4.34495795 73.9280001,6.03387997 63.7662228,17.8623005 L45.5907826,38.7863753 Z" id="Fill-4" stroke="#FFFFFF" stroke-width="4" fill-opacity="0" fill="#FF3832" mask="url(#mask-4)"></path>
                <path d="" id="Path" stroke="#6DD400" stroke-width="0.980000019" mask="url(#mask-4)"></path>
            </g>
            <path d="M100,27 C100,31.4188689 96.4188689,35 92,35 C87.582119,35 84,31.4188689 84,27 C84,22.582119 87.582119,19 92,19 C96.4188689,19 100,22.582119 100,27" id="Fill-7" stroke="#FFFFFF" stroke-width="4"></path>
        </g>
    </g>
</svg>