<svg id="Layer_1" data-name="Layer 1" xmlns="http://www.w3.org/2000/svg" viewBox="0 0 128.9 112.31"><defs><style>.cls-1{fill:#fad100;}.cls-2{fill:#ff3832;}</style></defs><title>ic-michelad-color</title><path class="cls-1" d="M298.62,239.31S277.46,215.17,253,228.5c-27.83,15.17-15.24,46.27-15.24,46.27s9.49,21.23,38.74,46.48l14,12s6.75,7.75,17.25,0S349,294.6,355.75,284c5.25-8.25,17.75-37-8-53.75C321.25,213,298.62,239.31,298.62,239.31Z" transform="translate(-234.92 -224.39)"/><path class="cls-2" d="M298.62,239.31,276.83,261s-1.83,4.83.67,7.83,5.83,2.84,8.33,2,11-9,11-9,4.52-3.8,9.86.37c3.62,2.83.42,8.46.42,8.46L293.17,286.5s-2.84,5.08.41,9.17c2.68,3.36,7.17,3,11,.83s20.25-20.33,20.25-20.33,5.67-3,9.5.5,1.34,8.33,1.34,8.33l-24.95,27.54a6.79,6.79,0,0,0-1.31,2.11c-1,2.71-2.35,8.76,5.91,9.6,1.66.17,3.68-1.32,5.31-2.45l18-17.55C349.19,293.44,372,271.07,360.79,245s-39.51-19.62-39.51-19.62S307.5,227.88,298.62,239.31Z" transform="translate(-234.92 -224.39)"/><circle class="cls-1" cx="87.88" cy="25.83" r="8.1"/></svg>