<?xml version="1.0" encoding="utf-8"?>
<!-- Generator: Adobe Illustrator 22.0.0, SVG Export Plug-In . SVG Version: 6.00 Build 0)  -->
<svg version="1.1" id="Layer_1" xmlns="http://www.w3.org/2000/svg" xmlns:xlink="http://www.w3.org/1999/xlink" x="0px" y="0px"
	 viewBox="0 0 219.9 264.3" style="enable-background:new 0 0 219.9 264.3;" xml:space="preserve">
<style type="text/css">
	.st0{fill:#F4CC6A;}
	.st1{fill:#E1AD3D;}
	.st2{fill:#C68F30;}
</style>
<g>
	<g>
		<path class="st0" d="M73.6,116.2C24.5,74.4,9.7,35.7,16.9,15.8c2.5-6.8,7.7-11,13.9-11.1c7.3-0.1,13.9,2.6,19.1,7.7
			c7.4,7.3,11.8,19.3,11.8,32.2H51.1c0-10-3.3-19.5-8.6-24.8c-3.2-3.2-7.2-4.7-11.6-4.7c-2.2,0-3.5,2.3-4.2,4.1
			c-4.8,13.3,5.5,48,53.7,88.9L73.6,116.2z"/>
		<path class="st0" d="M149.2,116.2l-6.8-8c48.1-40.9,58.5-75.6,53.7-88.9c-0.7-1.9-1.9-4.1-4.2-4.1c-4.5,0-8.4,1.5-11.6,4.7
			c-5.3,5.3-8.6,14.7-8.6,24.8h-10.5c0-12.9,4.4-25,11.8-32.2c5.2-5.2,11.9-7.9,19.1-7.7c6.2,0.1,11.4,4.2,13.9,11.1
			C213.1,35.7,198.4,74.4,149.2,116.2z"/>
	</g>
	<path class="st1" d="M127.3,144.7c0,9.8,2.2,19.1,6.2,27.4H89.3c4-8.3,6.2-17.6,6.2-27.4c0-9.8-2.2-19.1-6.2-27.4h44.2
		C129.5,125.6,127.3,134.9,127.3,144.7z"/>
	<path class="st0" d="M51.2,19.7v49.1c0,33.2,26.9,60.2,60.2,60.2s60.2-26.9,60.2-60.2V19.7H51.2z"/>
	<path class="st1" d="M145,196.6c0-18.5-15-33.5-33.5-33.5c-18.5,0-33.5,15-33.5,33.5H145z"/>
	<rect x="46.3" y="242.8" class="st2" width="130.2" height="16.8"/>
	<rect x="60.2" y="193.2" class="st0" width="102.4" height="49.7"/>
	<path class="st2" d="M138.3,233.6H84.5c0-3.7-3-6.6-6.6-6.6v-17.9c3.7,0,6.6-3,6.6-6.6h53.8c0,3.7,3,6.6,6.6,6.6v8.9v8.9
		C141.3,226.9,138.3,229.9,138.3,233.6z"/>
</g>
</svg>
