<?xml version="1.0" encoding="utf-8"?>
<!-- Generator: Adobe Illustrator 23.0.2, SVG Export Plug-In . SVG Version: 6.00 Build 0)  -->
<svg version="1.1" id="Layer_1" xmlns="http://www.w3.org/2000/svg" xmlns:xlink="http://www.w3.org/1999/xlink" x="0px" y="0px"
	 viewBox="0 0 1837.84 1106.41" style="enable-background:new 0 0 1837.84 1106.41;" xml:space="preserve">
<style type="text/css">
	.st0{fill:#2A2C52;}
	.st1{fill:#F9D028;}
	.st2{fill:#15162F;}
	.st3{fill:#EA3735;}
	.st4{fill:#FFFFFF;}
</style>
<path class="st0" d="M1351.59,59.18C1196.95,19.69,1057.77-0.03,918.58,0v1106.23l0.34,0.18l251.23-133.82
	c89.17-47.5,146.64-138.54,151.18-239.46L1351.59,59.18L1351.59,59.18z"/>
<g>
	<path class="st1" d="M1665.02,567.73l-96.84-26.37c-26.45-7.2-42.05-34.48-34.85-60.93c7.2-26.45,34.48-42.05,60.93-34.85
		l151.43,41.22c26.45,7.2,53.73-8.4,60.93-34.85c7.2-26.45-8.4-53.73-34.85-60.93l-298.49-81.29l-27.55,84.54l7.91-165.37
		c-35.93-10.22-72.09-19.37-108.42-27.48l6.39-142.26h0C1197.07,19.73,1058,0,918.92,0S640.77,19.73,486.25,59.18h0l6.4,142.41
		c-36.56,8.18-72.95,17.41-109.11,27.72l3.55,74.3l-0.85,0.23l4.44,92.75l-27.75-85.17l0.32-1.32L66.09,391.03
		c-26.45,7.2-42.05,34.48-34.85,60.93c7.2,26.45,34.48,42.05,60.93,34.85l151.43-41.22c26.45-7.2,53.73,8.4,60.93,34.85
		c7.2,26.45-8.4,53.73-34.85,60.93l-96.84,26.37c-26.45,7.2-42.05,34.48-34.85,60.93l0,0c7.2,26.45,34.48,42.05,60.93,34.85
		l72.25-19.67c26.45-7.2,53.73,8.4,60.93,34.85c7.2,26.45-8.4,53.73-34.85,60.93l-25.31,6.9c-26.45,7.2-42.05,34.48-34.85,60.93l0,0
		c7.2,26.45,34.48,42.05,60.93,34.85l220.73-60.13l0.47,10.56c2.87,64,39.32,121.72,95.86,151.84l303.87,161.86l303.87-161.86
		c56.54-30.12,92.98-87.84,95.86-151.84l0.47-10.56l220.73,60.13c26.45,7.2,53.73-8.4,60.93-34.85l0,0
		c7.2-26.45-8.4-53.73-34.85-60.93l-25.31-6.9c-26.45-7.2-42.05-34.48-34.85-60.93c7.2-26.45,34.48-42.05,60.93-34.85l72.25,19.67
		c26.45,7.2,53.73-8.4,60.93-34.85l0,0C1707.07,602.21,1691.47,574.93,1665.02,567.73z M564.11,117.69
		c53.67-12.18,104.66-21.56,154.54-28.44c68.7-9.48,134.2-14.09,200.27-14.09s131.57,4.61,200.27,14.09
		c49.88,6.88,100.87,16.26,154.54,28.44l-3.08,68.59c-232.55-42.52-470.92-42.47-703.45,0.13L564.11,117.69z M411.05,736.71
		l2.69-1.2c33.76-9.04,67.7-17.17,101.78-24.37l1.81,40.25L411.05,736.71z M1176.93,883.83l-258.01,137.43L660.91,883.83
		c-39.62-21.1-65.16-61.56-67.17-106.4l-3.62-80.51c217.61-37.2,439.98-37.24,657.6-0.13l-3.62,80.64
		C1242.09,822.27,1216.55,862.72,1176.93,883.83z M1320.49,751.75l2.04-40.71c35.78,7.55,71.39,16.1,106.81,25.68L1320.49,751.75z"
		/>
	
		<ellipse transform="matrix(1 -1.048274e-03 1.048274e-03 1 -0.6845 1.8777)" class="st1" cx="1790.88" cy="653.88" rx="46.95" ry="46.95"/>
	
		<ellipse transform="matrix(0.0689 -0.9976 0.9976 0.0689 -608.6038 655.6556)" class="st1" cx="46.96" cy="653.88" rx="46.95" ry="46.95"/>
</g>
<polygon class="st1" points="918.73,791.82 938.77,832.43 983.59,838.94 951.16,870.56 958.81,915.2 918.73,894.12 878.64,915.2 
	886.29,870.56 853.86,838.94 898.68,832.43 "/>
<g>
	<path class="st2" d="M479.75,361.48c18.19-3.47,36.4-6.72,54.65-9.76c0,6.98,0,13.97,0,20.95c0.24-0.04,0.47-0.08,0.71-0.12
		c4.6-8.87,17.29-30.73,54.1-36.04c17.34-2.49,41.1,0.49,56.72,27.81c12.07-20.58,32.3-38.9,62.53-41.65
		c13.87-1.27,35.93,0.16,51.96,15.79c18.52,18.31,21.37,31.34,21.37,75.01c0,35.87,0,71.74,0,107.62
		c-19.71,1.16-39.42,2.56-59.11,4.21c0-34.92,0-69.85,0-104.77c0-15.94-0.01-43.8-30.23-40.95c-32.7,3.27-32.68,33.29-32.69,44.25
		c0,35.87,0,71.74,0,107.62c-19.65,2.19-39.28,4.62-58.88,7.31c0-35.75,0-71.51,0-107.26c0-10.61-0.01-41.31-29.38-36.99
		c-33.24,5.08-33.22,37.25-33.23,48.91c0,34.92,0,69.85,0,104.77c-19.54,3.22-39.05,6.68-58.53,10.4
		C479.75,492.9,479.75,427.19,479.75,361.48z"/>
	<path class="st2" d="M1023.6,444.49c-10.69,44.3-50.27,79.02-103.79,78.99c-59.94-0.04-105.93-44.47-105.93-103.13
		c0-57.83,45.28-107.13,104.5-107.13c52.45-0.04,94.88,36.34,104.86,85.08c-19.96-0.89-39.94-1.52-59.91-1.9
		c-6.42-13.6-18.19-28.08-42.81-28.12c-28.18-1.43-47.09,22.12-47.09,50.52c0,28.79,18.9,49.63,47.09,49.64
		c24.62,0.04,36.39-13.89,42.81-25.86C983.42,442.95,1003.51,443.59,1023.6,444.49z"/>
	<path class="st2" d="M1056.03,323.99c18.41,1.08,36.81,2.38,55.19,3.89c0,6.98,0,13.97,0,20.95c0.24,0.02,0.47,0.04,0.71,0.06
		c4.62-7.73,17.45-26.41,54.4-22.57c17.41,1.82,41.19,10.7,56.78,41.89c12.05-17.59,32.25-30.89,62.3-26.15
		c13.79,2.16,35.68,9.04,51.53,28.64c18.32,22.88,21.13,36.62,21.13,80.29c0,35.87,0,71.74,0,107.62
		c-19.48-3.72-38.99-7.18-58.53-10.4c0-34.92,0-69.85,0-104.77c0-15.94,0.01-43.8-30.04-48.43c-32.56-4.83-32.57,25.19-32.57,36.15
		c0,35.87,0,71.74,0,107.62c-19.6-2.68-39.23-5.12-58.88-7.31c0-35.75,0-71.51,0-107.26c0-10.61,0.01-41.31-29.49-44.29
		c-33.42-3.19-33.43,28.97-33.43,40.64c0,34.92,0,69.85,0,104.77c-19.69-1.65-39.39-3.06-59.11-4.21
		C1056.03,455.4,1056.03,389.69,1056.03,323.99z"/>
</g>
</svg>
